<?xml version="1.0" encoding="UTF-8" standalone="no"?>
<svg width="26px" height="29px" viewBox="0 0 26 29" version="1.1" xmlns="http://www.w3.org/2000/svg" xmlns:xlink="http://www.w3.org/1999/xlink">
    <!-- Generator: Sketch 3.8.2 (29753) - http://www.bohemiancoding.com/sketch -->
    <title>Group 2</title>
    <desc>Created with Sketch.</desc>
    <defs></defs>
    <g id="Page-1" stroke="none" stroke-width="1" fill="none" fill-rule="evenodd">
        <g id="Desktop" transform="translate(-25.000000, -4.000000)">
            <g id="Group-2" transform="translate(25.000000, 4.000000)">
                <path d="M10.5858494,9.41921641 C10.5858495,9.41525758 12.1881378,11.9838992 12.1881378,11.9838992 C12.4787085,12.4496165 12.9511584,12.448986 13.2425867,11.9837643 C13.2425867,11.9837643 14.8515735,9.41525758 14.8515736,9.41525767 C16.6038231,8.63369275 17.8198294,6.92082837 17.8198294,4.9335211 C17.8198294,2.20881263 15.5339893,0 12.7142625,0 C9.89453581,0 7.60869565,2.20881263 7.60869565,4.9335211 C7.60869565,6.92419049 8.82881988,8.6394876 10.5858494,9.41921641 Z M12.6829818,7.61142928 C14.0842073,7.61142928 15.2201249,6.47551163 15.2201249,5.07428619 C15.2201249,3.67306075 14.0842073,2.53714309 12.6829818,2.53714309 C11.2817564,2.53714309 10.1458387,3.67306075 10.1458387,5.07428619 C10.1458387,6.47551163 11.2817564,7.61142928 12.6829818,7.61142928 Z" id="Combined-Shape" fill="#000000"></path>
                <path d="M0.860595703,16.0912449 C0.860595703,16.0912449 4.71854832,14.0760233 6.58250892,10.6336405 C6.58250892,10.6336405 7.49564793,17.2315408 12.4973463,17.2315408 C17.4990447,17.2315408 18.7919285,10.6336405 18.7919285,10.6336405 C20.6941024,13.9854032 24.4873047,16.0912449 24.4873047,16.0912449" id="Path-164" stroke="#000000" stroke-width="1.5" stroke-linecap="round"></path>
                <path d="M5.97826087,11.6956522 L5.97826084,20.5000002" id="Line" stroke="#000000" stroke-linecap="round"></path>
                <path d="M6.0869565,21 L6.0869565,27.5000002" id="Line" stroke="#000000" stroke-width="2" stroke-linecap="round"></path>
                <path d="M19.0869565,21 L19.0869565,27.5000002" id="Line" stroke="#000000" stroke-width="2" stroke-linecap="round"></path>
                <path d="M19.0217391,11.6956522 L19.0217391,20.5000002" id="Line" stroke="#000000" stroke-linecap="round"></path>
                <path d="M1.63043478,20.3913043 L24.4565217,20.3913043" id="Line" stroke="#000000" stroke-width="2" stroke-linecap="square"></path>
                <path d="M8.15217391,15.5 L8.15217391,19.8478261" id="Line" stroke="#000000" stroke-linecap="square"></path>
                <path d="M3.80434783,14.4130435 L3.80434783,19.8478261" id="Line" stroke="#000000" stroke-linecap="square"></path>
                <path d="M1.63043478,16.5869565 L1.63043478,19.8478261" id="Line" stroke="#000000" stroke-linecap="square"></path>
                <path d="M10.326087,17.673913 L10.326087,19.8478261" id="Line" stroke="#000000" stroke-linecap="square"></path>
                <path d="M12.5,17.673913 L12.5,19.8478261" id="Line" stroke="#000000" stroke-linecap="square"></path>
                <path d="M14.673913,17.673913 L14.673913,19.8478261" id="Line" stroke="#000000" stroke-linecap="square"></path>
                <path d="M16.8478261,15.5 L16.8478261,19.8478261" id="Line" stroke="#000000" stroke-linecap="square"></path>
                <path d="M21.1956522,14.4130435 L21.1956522,19.8478261" id="Line" stroke="#000000" stroke-linecap="square"></path>
                <path d="M23.3695652,15.5 L23.3695652,19.8478261" id="Line" stroke="#000000" stroke-linecap="round"></path>
            </g>
        </g>
    </g>
</svg>